{"glyphs":{":":{"x_min":0,"x_max":280,"ha":280,"o":"m 156 545 q 189 545 214 521 q 238 497 238 463 q 238 430 214 406 q 189 382 156 382 q 122 382 98 406 q 74 430 74 463 q 74 498 97 521 q 121 545 156 545 z m 100 150 q 134 150 158 126 q 182 103 182 68 q 182 35 158 10 q 134 -14 100 -14 q 66 -14 42 10 q 18 35 18 68 q 18 103 42 126 q 66 150 100 150 z"},"$":{"x_min":0,"x_max":560,"ha":560,"o":"m 302 785 l 388 785 l 379 727 q 423 715 455 693 q 487 671 522 627 l 429 554 q 395 592 367 606 q 339 621 310 621 q 273 621 247 598 q 221 575 221 546 q 221 531 226 520 q 233 505 249 493 q 255 487 307 455 q 382 407 409 385 q 455 346 477 302 q 499 259 499 208 q 499 150 470 99 q 442 48 395 19 q 348 -10 275 -17 l 257 -145 l 172 -145 l 189 -17 q 120 -3 75 32 q 31 67 -7 140 l 110 199 q 163 97 252 97 q 303 97 336 127 q 369 157 369 200 q 369 234 347 263 q 324 291 242 339 q 153 392 123 438 q 91 483 91 538 q 91 608 144 668 q 196 728 295 733 z"},"?":{"x_min":0,"x_max":560,"ha":560,"o":"m 169 536 l 42 536 q 49 598 83 646 q 117 695 174 723 q 231 750 303 750 q 397 750 457 694 q 516 637 516 559 q 516 459 398 372 q 344 333 331 318 q 317 302 308 277 q 298 251 295 213 l 169 213 q 172 301 199 353 q 226 405 298 454 q 356 493 372 514 q 387 536 387 558 q 387 586 361 607 q 334 629 290 629 q 193 629 169 536 z m 208 150 q 241 150 265 126 q 289 103 289 68 q 289 35 265 10 q 241 -14 208 -14 q 173 -14 149 10 q 125 35 125 68 q 125 103 149 126 q 173 150 208 150 z"},"<":{"x_min":0,"x_max":600,"ha":600,"o":"m 544 179 l 544 57 l 56 305 l 56 413 l 544 661 l 544 540 l 196 359 z"},"'":{"x_min":0,"x_max":220,"ha":220,"o":"m 174 490 l 98 490 l 71 736 l 201 736 z"},"=":{"x_min":0,"x_max":600,"ha":600,"o":"m 56 524 l 544 524 l 544 402 l 56 402 z m 56 315 l 544 315 l 544 193 l 56 193 z"},"a":{"x_min":0,"x_max":660,"ha":660,"o":"m 480 531 l 611 531 l 542 0 l 413 0 l 420 57 q 377 18 341 2 q 304 -14 258 -14 q 152 -14 90 64 q 28 142 28 245 q 28 323 67 394 q 107 465 174 505 q 240 545 313 545 q 362 545 403 522 q 444 500 471 457 z m 288 103 q 336 103 372 124 q 407 146 431 191 q 456 237 456 285 q 456 348 419 386 q 383 425 323 425 q 254 425 206 374 q 157 322 157 241 q 157 179 194 141 q 230 103 288 103 z"},"L":{"x_min":0,"x_max":440,"ha":440,"o":"m 132 718 l 268 718 l 187 124 l 410 124 l 394 0 l 35 0 z"},"3":{"x_min":0,"x_max":560,"ha":560,"o":"m 231 545 l 107 545 q 118 633 176 685 q 234 736 318 736 q 371 736 413 713 q 455 689 480 646 q 505 602 505 556 q 505 509 477 464 q 450 420 394 386 q 491 326 491 220 q 491 122 419 52 q 347 -18 244 -18 q 150 -18 89 47 q 28 112 28 219 l 155 219 q 160 165 181 140 q 209 106 255 106 q 303 106 332 142 q 360 178 360 228 q 360 256 344 281 q 329 306 304 319 q 279 332 227 334 l 243 447 q 305 447 338 475 q 370 503 370 546 q 370 575 352 594 q 333 612 306 612 q 277 612 257 595 q 237 577 231 545 z"},";":{"x_min":0,"x_max":280,"ha":280,"o":"m 156 545 q 190 545 214 521 q 238 497 238 463 q 238 430 214 406 q 190 382 156 382 q 122 382 98 406 q 74 430 74 463 q 74 498 98 521 q 122 545 156 545 z m 72 130 l 173 70 l 38 -105 l -25 -67 z"},"J":{"x_min":0,"x_max":480,"ha":480,"o":"m 314 718 l 449 718 l 381 211 q 368 111 347 69 q 327 27 288 5 q 249 -18 196 -18 q 131 -18 73 20 q 14 58 -23 128 l 84 193 q 112 149 140 130 q 168 110 189 110 q 212 110 225 127 q 238 145 244 204 z"},"V":{"x_min":0,"x_max":700,"ha":700,"o":"m 51 718 l 183 718 l 312 200 l 589 718 l 734 718 l 350 0 l 229 0 z"},"\"":{"x_min":0,"x_max":360,"ha":360,"o":"m 345 490 l 269 490 l 242 736 l 372 736 z m 144 490 l 68 490 l 41 736 l 171 736 z"},"7":{"x_min":0,"x_max":560,"ha":560,"o":"m 116 718 l 564 718 l 556 630 l 193 -18 l 83 42 l 396 594 l 100 594 z"},"S":{"x_min":0,"x_max":520,"ha":520,"o":"m 497 618 l 398 531 q 338 609 286 609 q 260 609 243 594 q 226 579 226 557 q 226 537 241 513 q 257 488 336 405 q 378 360 391 342 q 423 299 437 261 q 451 224 451 186 q 451 99 389 41 q 328 -18 231 -18 q 85 -18 -7 121 l 96 205 q 159 109 231 109 q 266 109 290 132 q 313 154 313 186 q 313 211 299 237 q 285 263 217 334 q 145 410 123 449 q 92 501 92 551 q 92 618 136 670 q 190 736 283 736 q 411 736 497 618 z"},"}":{"x_min":0,"x_max":340,"ha":340,"o":"m 306 308 l 290 190 q 245 188 221 172 q 197 155 180 116 q 167 87 157 14 q 147 -58 140 -87 q 126 -138 101 -165 q 76 -193 25 -209 q -8 -220 -76 -220 l -102 -220 l -85 -104 q -30 -104 -13 -97 q 4 -90 12 -76 q 18 -66 29 -3 q 49 110 58 135 q 72 175 93 200 q 114 225 155 249 q 90 290 90 375 q 90 411 100 501 q 105 546 105 559 q 105 583 82 594 q 67 601 13 601 l 30 718 l 56 718 q 130 718 165 704 q 199 690 217 663 q 235 635 235 592 q 235 558 225 491 q 216 431 216 397 q 216 355 240 329 q 258 310 306 308 z"},"Z":{"x_min":0,"x_max":500,"ha":500,"o":"m 89 718 l 495 718 l 210 125 l 436 125 l 419 0 l 9 0 l 294 592 l 72 592 z"},"x":{"x_min":0,"x_max":560,"ha":560,"o":"m 29 531 l 173 531 l 266 380 l 376 531 l 528 531 l 335 267 l 499 0 l 355 0 l 256 161 l 137 0 l -15 0 l 188 273 z"},")":{"x_min":0,"x_max":380,"ha":380,"o":"m 60 -208 l -109 -208 q 140 31 140 402 q 140 498 115 574 q 91 650 26 750 l 195 750 q 240 661 260 582 q 279 504 279 415 q 279 301 254 186 q 229 72 184 -20 q 138 -112 60 -208 z"},"&":{"x_min":0,"x_max":680,"ha":680,"o":"m 553 287 l 625 190 q 598 167 568 146 l 540 125 l 570 88 q 617 30 639 0 l 479 0 q 454 26 431 54 q 379 20 321 1 q 263 -18 212 -18 q 140 -18 86 34 q 32 85 32 156 q 32 215 69 266 q 105 317 207 376 q 181 427 172 456 q 164 485 164 514 q 164 586 219 638 q 274 689 355 689 q 424 689 469 645 q 513 602 513 536 q 513 483 482 434 q 451 385 380 336 q 428 265 463 223 q 515 257 553 287 z m 315 438 q 389 488 389 530 q 389 544 376 555 q 364 565 345 565 q 322 565 306 550 q 290 535 290 515 q 290 481 315 438 z m 271 269 q 233 248 195 220 q 176 206 166 188 q 159 174 159 160 q 159 135 176 119 q 193 104 221 104 q 245 104 280 116 q 288 120 355 153 q 346 164 328 190 z"},"_":{"x_min":0,"x_max":500,"ha":500,"o":"m -6 -75 l 506 -75 l 506 -125 l -6 -125 z"},"v":{"x_min":0,"x_max":560,"ha":560,"o":"m 27 531 l 155 531 l 238 236 l 408 531 l 550 531 l 242 0 l 179 0 z"},"O":{"x_min":0,"x_max":840,"ha":840,"o":"m 461 736 q 609 736 706 641 q 802 546 802 399 q 802 287 745 188 q 688 88 594 35 q 499 -18 376 -18 q 223 -18 132 73 q 40 164 40 312 q 40 480 149 602 q 271 736 461 736 z m 457 609 q 379 609 316 572 q 252 534 213 464 q 174 394 174 319 q 174 231 228 169 q 282 108 384 108 q 501 108 584 191 q 666 274 666 393 q 666 491 608 550 q 550 609 457 609 z"},"(":{"x_min":0,"x_max":380,"ha":380,"o":"m 300 750 l 469 750 q 220 511 220 140 q 220 44 244 -32 q 269 -108 333 -208 l 165 -208 q 120 -119 100 -41 q 81 38 81 126 q 81 241 106 355 q 131 470 176 562 q 222 654 300 750 z"},"C":{"x_min":0,"x_max":780,"ha":780,"o":"m 744 625 l 646 535 q 614 571 568 591 q 522 611 469 611 q 394 611 325 572 q 256 534 218 470 q 179 407 179 335 q 179 237 247 173 q 314 108 419 108 q 532 108 615 173 l 694 68 q 572 -18 411 -18 q 297 -18 218 25 q 139 68 91 151 q 42 234 42 332 q 42 436 99 531 q 156 626 253 681 q 351 736 465 736 q 626 736 744 625 z"},"W":{"x_min":0,"x_max":900,"ha":900,"o":"m 64 718 l 188 718 l 229 253 l 449 718 l 550 718 l 636 265 l 795 718 l 926 718 l 672 0 l 562 0 l 471 476 l 246 0 l 128 0 z"},"A":{"x_min":0,"x_max":740,"ha":740,"o":"m 376 718 l 490 718 l 668 0 l 538 0 l 500 153 l 216 153 l 133 0 l -12 0 z m 467 280 l 409 516 l 283 280 z"},"f":{"x_min":0,"x_max":280,"ha":280,"o":"m 27 531 l 84 531 q 98 635 115 674 q 131 712 160 731 q 189 750 231 750 q 287 750 333 718 l 319 612 q 292 636 265 636 q 244 636 235 621 q 225 606 214 531 l 295 531 l 281 419 l 200 419 l 142 0 l 12 0 l 69 419 l 13 419 z"},"Q":{"x_min":0,"x_max":840,"ha":840,"o":"m 688 109 l 813 -34 l 643 -34 l 585 31 q 490 -18 377 -18 q 223 -18 132 73 q 40 164 40 312 q 40 429 96 527 q 152 625 247 681 q 343 736 458 736 q 609 736 705 641 q 802 546 802 399 q 802 320 771 243 q 741 166 688 109 z m 600 208 q 666 287 666 393 q 666 491 608 550 q 550 609 455 609 q 379 609 315 571 q 252 534 213 464 q 174 394 174 319 q 174 230 228 169 q 283 108 383 108 q 445 108 497 130 l 389 251 l 562 251 z"},"w":{"x_min":0,"x_max":800,"ha":800,"o":"m 25 531 l 151 531 l 224 247 l 379 531 l 430 531 l 504 247 l 658 531 l 797 531 l 508 0 l 445 0 l 373 281 l 222 0 l 160 0 z"},"-":{"x_min":0,"x_max":420,"ha":420,"o":"m 76 324 l 339 324 l 324 205 l 61 205 z"},"E":{"x_min":0,"x_max":520,"ha":520,"o":"m 120 718 l 510 718 l 493 591 l 239 591 l 219 442 l 474 442 l 458 316 l 203 316 l 177 125 l 434 125 l 417 0 l 25 0 z"},"s":{"x_min":0,"x_max":440,"ha":440,"o":"m 386 457 l 324 357 q 300 393 273 410 q 247 427 224 427 q 207 427 194 417 q 182 407 182 395 q 182 383 192 372 q 201 360 248 326 q 323 272 346 234 q 370 196 370 151 q 370 92 322 39 q 273 -14 181 -14 q 127 -14 84 8 q 40 29 -14 86 l 67 180 q 122 108 187 108 q 212 108 228 120 q 243 133 243 150 q 243 164 231 178 q 220 192 167 229 q 107 272 84 303 q 52 346 52 394 q 52 461 102 503 q 153 545 222 545 q 270 545 313 522 q 357 499 386 457 z"},">":{"x_min":0,"x_max":600,"ha":600,"o":"m 56 540 l 56 661 l 544 413 l 544 305 l 56 57 l 56 179 l 404 359 z"},"l":{"x_min":0,"x_max":240,"ha":240,"o":"m 104 736 l 234 736 l 137 0 l 7 0 z"},"8":{"x_min":0,"x_max":560,"ha":560,"o":"m 385 387 q 439 366 469 322 q 500 278 500 217 q 500 149 468 96 q 437 42 378 12 q 320 -18 245 -18 q 147 -18 84 42 q 20 103 20 188 q 20 233 40 277 q 59 321 91 351 q 123 380 176 400 q 142 420 124 447 q 96 490 96 541 q 96 591 124 637 q 151 683 203 710 q 254 736 315 736 q 403 736 460 683 q 517 630 517 558 q 517 504 484 459 q 452 415 385 387 z m 312 611 q 275 611 251 587 q 227 562 227 528 q 227 497 246 476 q 265 456 297 456 q 332 456 356 479 q 381 503 381 538 q 381 572 362 591 q 343 611 312 611 z m 271 331 q 223 331 188 295 q 154 258 154 204 q 154 162 183 134 q 211 105 255 105 q 304 105 337 139 q 370 174 370 224 q 370 269 341 300 q 312 331 271 331 z"},"\\":{"x_min":0,"x_max":640,"ha":640,"o":"m 528 -128 l 434 -128 l 111 739 l 206 739 z"},"e":{"x_min":0,"x_max":640,"ha":640,"o":"m 420 156 l 535 96 q 497 45 433 16 q 369 -14 292 -14 q 170 -14 100 55 q 30 123 30 236 q 30 366 117 455 q 205 545 329 545 q 404 545 462 512 q 521 479 554 417 q 588 354 588 281 q 588 258 583 228 l 159 228 q 161 172 196 140 q 230 107 291 107 q 364 107 420 156 z m 454 323 q 439 372 405 397 q 371 422 322 422 q 274 422 236 396 q 197 371 177 323 z"},"b":{"x_min":0,"x_max":660,"ha":660,"o":"m 151 0 l 21 0 l 117 736 l 246 736 l 212 474 q 254 514 291 530 q 328 545 374 545 q 479 545 542 467 q 604 390 604 287 q 604 208 564 137 q 525 66 458 26 q 392 -14 319 -14 q 270 -14 229 9 q 188 31 161 74 z m 344 429 q 296 429 260 407 q 225 386 200 340 q 176 294 176 246 q 176 183 213 145 q 249 106 309 106 q 378 106 426 158 q 475 209 475 290 q 475 353 438 391 q 401 429 344 429 z"},"%":{"x_min":0,"x_max":860,"ha":860,"o":"m 715 750 l 813 750 l 130 -49 l 32 -49 l 616 637 q 583 631 549 627 q 516 624 482 624 q 436 624 383 630 q 389 603 389 583 q 389 535 363 489 q 337 444 294 419 q 251 395 199 395 q 132 395 89 436 q 47 478 47 542 q 47 630 119 690 q 173 736 231 736 q 252 736 314 725 q 422 704 495 704 q 553 704 608 716 q 663 727 715 750 z m 230 650 q 190 650 162 621 q 135 592 135 550 q 135 520 155 499 q 175 478 206 478 q 244 478 271 507 q 299 536 299 577 q 299 610 280 630 q 261 650 230 650 z m 658 322 q 722 322 764 280 q 807 237 807 171 q 807 122 781 77 q 755 32 712 7 q 668 -18 617 -18 q 544 -18 505 27 q 465 72 465 132 q 465 179 491 225 q 518 271 563 296 q 608 322 658 322 z m 647 238 q 608 238 581 210 q 553 182 553 140 q 553 106 574 86 q 594 65 625 65 q 662 65 690 95 q 717 125 717 166 q 717 199 698 219 q 679 238 647 238 z"},"m":{"x_min":0,"x_max":940,"ha":940,"o":"m 91 531 l 222 531 l 214 474 q 285 545 373 545 q 409 545 440 533 q 471 521 490 501 q 509 482 523 448 q 560 496 609 520 q 658 545 711 545 q 778 545 822 500 q 866 456 866 384 q 866 357 861 317 l 819 0 l 690 0 l 726 273 q 733 328 733 346 q 733 384 714 403 q 695 423 661 423 q 628 423 594 399 q 560 375 542 336 q 524 297 512 201 l 486 0 l 355 0 l 394 289 q 399 324 399 349 q 399 384 379 404 q 359 424 326 424 q 295 424 262 403 q 229 381 211 344 q 192 306 182 229 l 152 0 l 22 0 z"},"#":{"x_min":0,"x_max":600,"ha":600,"o":"m 542 331 l 542 234 l 429 234 l 395 0 l 296 0 l 331 234 l 237 234 l 203 0 l 105 0 l 140 234 l 30 234 l 30 331 l 155 331 l 169 423 l 61 423 l 61 520 l 183 520 l 215 736 l 310 736 l 280 520 l 373 520 l 405 736 l 503 736 l 471 520 l 570 520 l 570 423 l 457 423 l 444 331 z m 359 423 l 265 423 l 252 331 l 344 331 z"},",":{"x_min":0,"x_max":280,"ha":280,"o":"m 72 130 l 173 70 l 38 -105 l -25 -67 z"},"n":{"x_min":0,"x_max":600,"ha":600,"o":"m 94 531 l 224 531 l 216 478 q 291 545 372 545 q 440 545 484 501 q 528 458 528 391 q 528 360 520 298 l 480 0 l 351 0 l 390 291 q 396 335 396 358 q 396 390 377 407 q 359 425 325 425 q 292 425 260 402 q 227 379 209 339 q 192 299 177 188 l 152 0 l 22 0 z"},"h":{"x_min":0,"x_max":600,"ha":600,"o":"m 122 736 l 251 736 l 216 478 q 291 545 372 545 q 440 545 484 501 q 528 458 528 391 q 528 360 520 298 l 480 0 l 351 0 l 390 291 q 396 335 396 358 q 396 390 377 407 q 359 425 325 425 q 292 425 260 402 q 227 379 209 339 q 192 299 177 188 l 152 0 l 22 0 z"},"z":{"x_min":0,"x_max":460,"ha":460,"o":"m 42 531 l 463 531 l 191 120 l 440 120 l 424 0 l -35 0 l 236 410 l 27 410 z"},"B":{"x_min":0,"x_max":580,"ha":580,"o":"m 130 718 l 242 718 q 345 718 395 696 q 444 674 475 628 q 505 582 505 528 q 505 483 484 443 q 462 403 422 376 q 518 310 518 199 q 518 141 488 93 q 457 45 412 23 q 367 0 282 0 l 34 0 z m 227 433 l 251 433 q 306 433 326 441 q 345 449 359 471 q 373 493 373 520 q 373 545 360 563 q 348 581 328 587 q 309 594 248 594 z m 187 127 l 268 125 q 329 125 357 148 q 385 172 385 214 q 385 244 367 268 q 350 292 321 302 q 292 312 211 312 z"},"K":{"x_min":0,"x_max":620,"ha":620,"o":"m 132 718 l 267 718 l 234 474 l 465 718 l 632 718 l 319 390 l 567 0 l 416 0 l 213 319 l 170 0 l 36 0 z"},"R":{"x_min":0,"x_max":580,"ha":580,"o":"m 137 718 l 263 718 q 379 718 426 698 q 485 673 515 629 q 545 585 545 524 q 545 450 501 396 q 457 343 367 322 l 523 0 l 384 0 l 230 313 l 218 313 l 176 0 l 42 0 z m 233 431 q 344 432 378 454 q 411 476 411 521 q 411 546 398 563 q 384 580 359 587 q 333 594 256 594 z"},"T":{"x_min":0,"x_max":420,"ha":420,"o":"m 39 718 l 477 718 l 461 590 l 309 590 l 231 0 l 97 0 l 175 590 l 22 590 z"},"P":{"x_min":0,"x_max":560,"ha":560,"o":"m 131 718 l 258 718 q 373 718 420 698 q 479 673 509 629 q 540 584 540 525 q 540 459 504 406 q 469 354 409 329 q 350 305 211 303 l 170 0 l 35 0 z m 227 430 q 337 431 371 453 q 405 476 405 520 q 405 545 392 562 q 378 579 353 586 q 327 593 250 593 z"},"|":{"x_min":0,"x_max":600,"ha":600,"o":"m 262 736 l 339 736 l 339 -194 l 262 -194 z"},"t":{"x_min":0,"x_max":300,"ha":300,"o":"m 122 729 l 251 729 l 224 531 l 307 531 l 291 419 l 209 419 l 152 0 l 21 0 l 79 419 l 15 419 l 30 531 l 94 531 z"},"M":{"x_min":0,"x_max":900,"ha":900,"o":"m 184 718 l 306 718 l 427 218 l 675 718 l 792 718 l 801 0 l 675 0 l 669 430 l 457 0 l 354 0 l 244 451 l 129 0 l 0 0 z"},"g":{"x_min":0,"x_max":660,"ha":660,"o":"m 480 531 l 611 531 l 553 106 q 536 -20 518 -61 q 489 -125 422 -166 q 355 -208 254 -208 q 170 -208 108 -176 q 46 -143 15 -92 l 127 -33 q 177 -86 258 -86 q 305 -86 339 -69 q 373 -52 392 -23 q 411 6 419 63 q 348 0 258 0 q 196 0 143 31 q 90 63 60 120 q 29 177 29 247 q 29 326 69 395 q 108 464 177 504 q 245 545 319 545 q 364 545 400 527 q 437 510 472 468 z m 326 422 q 255 422 206 372 q 158 322 158 250 q 158 190 194 155 q 230 119 291 119 q 336 119 375 141 q 413 163 436 204 q 458 245 458 292 q 458 348 421 385 q 384 422 326 422 z"},"j":{"x_min":0,"x_max":260,"ha":260,"o":"m 170 749 q 204 749 227 725 q 250 701 250 668 q 250 635 227 611 q 204 587 170 587 q 137 587 113 611 q 89 635 89 668 q 89 701 113 725 q 137 749 170 749 z m 87 531 l 217 531 l 153 61 q 135 -72 116 -117 q 98 -162 63 -185 q 29 -208 -15 -208 q -49 -208 -95 -189 l -80 -72 q -58 -86 -39 -86 q -17 -86 -6 -67 q 10 -41 21 44 z"},"i":{"x_min":0,"x_max":240,"ha":240,"o":"m 158 749 q 191 749 215 725 q 239 701 239 668 q 239 635 215 611 q 191 587 158 587 q 125 587 101 611 q 78 635 78 668 q 78 701 101 725 q 125 749 158 749 z m 77 531 l 206 531 l 135 0 l 5 0 z"},"y":{"x_min":0,"x_max":580,"ha":580,"o":"m 22 531 l 150 531 l 253 216 l 435 531 l 576 531 l 158 -194 l 21 -194 l 171 72 z"},"@":{"x_min":0,"x_max":740,"ha":740,"o":"m 611 147 l 705 147 q 651 81 610 51 q 569 21 514 4 q 459 -13 400 -13 q 296 -13 207 38 q 117 89 66 177 q 16 265 16 368 q 16 473 67 562 q 118 652 206 702 q 294 752 399 752 q 546 752 647 658 q 748 563 748 438 q 748 347 705 281 q 663 214 590 177 q 535 149 497 149 q 469 149 452 164 q 438 175 438 201 q 395 154 333 154 q 264 154 218 203 q 171 252 171 334 q 171 425 228 496 q 285 567 378 567 q 417 567 447 551 q 478 535 499 503 l 509 554 l 605 554 l 557 270 q 552 239 552 235 q 552 230 557 225 q 562 221 569 221 q 586 221 615 244 q 644 268 662 313 q 681 357 681 411 q 681 490 646 550 q 611 611 546 646 q 481 680 397 680 q 309 680 239 641 q 168 602 128 530 q 87 458 87 371 q 87 283 128 211 q 169 139 243 99 q 317 59 408 59 q 462 59 510 79 q 558 99 611 147 z m 373 257 q 415 257 443 292 q 471 327 471 371 q 471 409 448 433 q 425 457 391 457 q 351 457 321 424 q 292 391 292 344 q 292 305 314 281 q 336 257 373 257 z"},".":{"x_min":0,"x_max":280,"ha":280,"o":"m 100 150 q 134 150 158 126 q 182 103 182 68 q 182 35 158 10 q 134 -14 100 -14 q 66 -14 42 10 q 18 35 18 68 q 18 103 42 126 q 66 150 100 150 z"},"p":{"x_min":0,"x_max":660,"ha":660,"o":"m 126 -194 l -4 -194 l 91 531 l 219 531 l 212 474 q 254 514 291 530 q 328 545 374 545 q 480 545 542 467 q 604 390 604 287 q 604 208 564 137 q 525 66 458 26 q 392 -14 319 -14 q 271 -14 229 9 q 188 31 161 74 z m 344 429 q 296 429 260 407 q 225 386 200 340 q 176 294 176 246 q 176 183 213 145 q 249 106 309 106 q 378 106 426 158 q 475 209 475 290 q 475 353 438 391 q 401 429 344 429 z"},"X":{"x_min":0,"x_max":680,"ha":680,"o":"m 122 718 l 261 718 l 362 496 l 519 718 l 675 718 l 422 363 l 587 0 l 447 0 l 338 244 l 165 0 l 8 0 l 277 377 z"},"*":{"x_min":0,"x_max":440,"ha":440,"o":"m 188 736 l 312 736 l 274 589 l 384 693 l 441 586 l 292 548 l 441 505 l 377 399 l 271 505 l 308 359 l 188 359 l 226 505 l 117 399 l 52 505 l 202 548 l 52 589 l 117 698 l 226 589 z"},"Y":{"x_min":0,"x_max":620,"ha":620,"o":"m 32 718 l 168 718 l 281 431 l 485 718 l 640 718 l 333 287 l 294 0 l 160 0 l 199 287 z"},"c":{"x_min":0,"x_max":640,"ha":640,"o":"m 580 421 l 469 361 q 422 421 343 421 q 290 421 249 398 q 208 375 184 333 q 159 290 159 242 q 159 180 198 143 q 236 106 304 106 q 397 106 447 169 l 549 97 q 506 45 441 16 q 376 -14 297 -14 q 173 -14 101 55 q 30 123 30 235 q 30 364 118 454 q 207 545 346 545 q 502 545 580 421 z"},"!":{"x_min":0,"x_max":280,"ha":280,"o":"m 127 736 l 261 736 l 188 212 l 53 212 z m 104 150 q 138 150 162 126 q 187 103 187 68 q 187 35 162 10 q 138 -14 104 -14 q 70 -14 46 10 q 22 35 22 68 q 22 103 46 126 q 70 150 104 150 z"},"/":{"x_min":0,"x_max":460,"ha":460,"o":"m 21 -128 l 344 739 l 439 739 l 116 -128 z"},"[":{"x_min":0,"x_max":320,"ha":320,"o":"m 154 736 l 368 736 l 351 612 l 272 612 l 177 -70 l 255 -70 l 239 -194 l 24 -194 z"},"6":{"x_min":0,"x_max":560,"ha":560,"o":"m 330 736 l 433 667 l 260 426 q 286 433 307 433 q 389 433 448 372 q 506 311 506 220 q 506 118 438 50 q 369 -18 262 -18 q 165 -18 100 47 q 36 111 36 205 q 36 243 45 278 q 60 328 85 375 q 131 457 179 525 z m 273 318 q 227 318 194 286 q 162 253 162 208 q 162 166 192 136 q 222 106 266 106 q 312 106 344 138 q 375 170 375 217 q 375 260 346 289 q 317 318 273 318 z"},"r":{"x_min":0,"x_max":320,"ha":320,"o":"m 62 531 l 178 531 l 168 459 q 221 545 294 545 q 312 545 331 536 l 284 418 q 269 422 262 422 q 225 422 195 378 q 166 334 148 200 l 123 0 l -8 0 z"},"2":{"x_min":0,"x_max":560,"ha":560,"o":"m 206 499 l 75 499 q 78 571 107 626 q 137 680 186 708 q 234 736 296 736 q 386 736 445 678 q 503 621 503 535 q 503 466 458 386 q 412 307 232 123 l 474 123 l 458 0 l 14 0 l 26 94 q 211 282 267 346 q 341 432 358 473 q 373 505 373 535 q 373 568 350 591 q 328 613 296 613 q 262 613 239 587 q 216 562 206 499 z"},"{":{"x_min":0,"x_max":340,"ha":340,"o":"m -8 190 l 9 308 q 53 310 77 326 q 102 342 118 382 q 130 411 140 484 q 150 556 158 584 q 172 636 197 663 q 222 690 272 707 q 306 718 375 718 l 400 718 l 384 601 q 329 601 312 594 q 294 588 286 574 q 280 563 269 501 q 250 388 241 363 q 226 323 205 298 q 184 273 143 249 q 208 208 208 123 q 208 86 198 -3 q 193 -49 193 -61 q 193 -85 216 -96 q 231 -104 285 -104 l 268 -220 l 243 -220 q 168 -220 134 -207 q 99 -193 81 -165 q 63 -137 63 -94 q 63 -60 73 7 q 83 67 83 101 q 83 143 58 169 q 41 188 -8 190 z"},"9":{"x_min":0,"x_max":560,"ha":560,"o":"m 236 -18 l 133 51 l 306 292 q 280 286 259 286 q 176 286 118 347 q 59 408 59 498 q 59 600 128 668 q 197 736 304 736 q 401 736 465 672 q 530 607 530 513 q 530 476 520 440 q 505 390 480 344 q 435 261 386 193 z m 292 400 q 338 400 371 433 q 404 465 404 510 q 404 553 374 582 q 344 611 300 611 q 253 611 222 579 q 190 547 190 500 q 190 458 219 429 q 249 400 292 400 z"}," ":{"x_min":0,"x_max":280,"ha":280,"o":""},"I":{"x_min":0,"x_max":280,"ha":280,"o":"m 125 718 l 257 718 l 158 0 l 28 0 z"},"H":{"x_min":0,"x_max":680,"ha":680,"o":"m 130 718 l 265 718 l 229 447 l 475 447 l 511 718 l 647 718 l 549 0 l 415 0 l 459 326 l 211 326 l 167 0 l 33 0 z"},"4":{"x_min":0,"x_max":560,"ha":560,"o":"m 388 736 l 508 736 l 445 255 l 516 255 l 500 138 l 429 138 l 411 0 l 288 0 l 306 138 l 4 138 l 20 255 z m 352 508 l 161 255 l 320 255 z"},"~":{"x_min":0,"x_max":600,"ha":600,"o":"m 49 275 l 49 431 q 123 467 171 467 q 202 467 240 457 q 277 446 339 417 q 379 396 392 393 q 409 388 426 388 q 480 388 552 443 l 552 286 q 490 251 431 251 q 399 251 366 260 q 333 269 260 301 q 213 322 197 326 q 181 330 165 330 q 141 330 116 319 q 91 309 49 275 z"},"D":{"x_min":0,"x_max":700,"ha":700,"o":"m 130 718 l 245 718 q 405 718 484 680 q 562 643 611 562 q 660 480 660 375 q 660 266 608 175 q 556 83 477 42 q 398 0 257 0 l 34 0 z m 249 592 l 187 125 l 231 125 q 334 125 380 143 q 444 167 483 226 q 522 285 522 372 q 522 443 495 491 q 467 540 417 566 q 367 592 283 592 z"},"^":{"x_min":0,"x_max":600,"ha":600,"o":"m 243 718 l 356 718 l 546 179 l 428 179 l 300 544 l 172 179 l 53 179 z"},"0":{"x_min":0,"x_max":560,"ha":560,"o":"m 327 736 q 410 736 466 663 q 522 590 522 450 q 522 306 477 193 q 432 80 366 31 q 300 -18 225 -18 q 171 -18 129 11 q 87 41 62 99 q 36 157 36 251 q 36 408 81 529 q 122 637 187 687 q 253 736 327 736 z m 314 609 q 284 609 259 584 q 222 547 193 451 q 164 354 164 250 q 164 165 184 134 q 204 104 239 104 q 271 104 305 135 q 338 167 366 260 q 395 354 395 464 q 395 542 372 576 q 350 609 314 609 z"},"F":{"x_min":0,"x_max":480,"ha":480,"o":"m 121 718 l 475 718 l 458 591 l 240 591 l 220 442 l 438 442 l 422 316 l 203 316 l 162 0 l 26 0 z"},"`":{"x_min":0,"x_max":420,"ha":420,"o":"m 105 819 l 263 819 l 352 627 l 256 627 z"},"k":{"x_min":0,"x_max":580,"ha":580,"o":"m 120 736 l 249 736 l 196 346 l 406 531 l 585 531 l 316 294 l 551 0 l 395 0 l 185 262 l 150 0 l 22 0 z"},"u":{"x_min":0,"x_max":600,"ha":600,"o":"m 95 531 l 224 531 l 188 260 q 183 215 183 192 q 183 157 207 133 q 231 109 271 109 q 321 109 348 140 q 375 171 388 265 l 424 531 l 553 531 l 515 246 q 501 149 470 96 q 439 43 388 15 q 337 -14 268 -14 q 170 -14 112 43 q 55 99 55 188 q 55 243 67 329 z"},"]":{"x_min":0,"x_max":320,"ha":320,"o":"m 152 -194 l -62 -194 l -44 -70 l 34 -70 l 130 612 l 51 612 l 68 736 l 282 736 z"},"U":{"x_min":0,"x_max":640,"ha":640,"o":"m 127 718 l 261 718 l 202 275 q 194 217 194 193 q 194 152 219 130 q 244 107 292 107 q 331 107 359 124 q 381 137 394 166 q 407 196 419 284 l 479 718 l 615 718 l 556 290 q 538 157 509 100 q 479 42 424 12 q 369 -18 289 -18 q 182 -18 122 39 q 62 96 62 195 q 62 238 73 322 z"},"o":{"x_min":0,"x_max":640,"ha":640,"o":"m 334 545 q 405 545 463 512 q 521 479 553 419 q 585 359 585 285 q 585 161 497 73 q 408 -14 278 -14 q 165 -14 97 55 q 30 124 30 234 q 30 368 121 457 q 212 545 334 545 z m 325 421 q 245 421 202 364 q 159 307 159 240 q 159 180 194 144 q 229 107 287 107 q 370 107 413 163 q 456 218 456 290 q 456 348 419 385 q 383 421 325 421 z"},"N":{"x_min":0,"x_max":740,"ha":740,"o":"m 130 718 l 248 718 l 508 230 l 574 718 l 706 718 l 609 0 l 494 0 l 230 494 l 164 0 l 35 0 z"},"+":{"x_min":0,"x_max":600,"ha":600,"o":"m 239 420 l 239 603 l 361 603 l 361 420 l 544 420 l 544 298 l 361 298 l 361 115 l 239 115 l 239 298 l 56 298 l 56 420 z"},"G":{"x_min":0,"x_max":840,"ha":840,"o":"m 752 584 l 640 512 q 591 567 546 589 q 500 611 443 611 q 318 611 240 511 q 178 431 178 334 q 178 238 242 173 q 306 108 399 108 q 468 108 525 142 q 582 175 618 242 l 394 242 l 411 370 l 774 370 q 766 191 662 87 q 559 -18 398 -18 q 223 -18 123 103 q 42 200 42 334 q 42 498 160 617 q 278 736 441 736 q 502 736 560 719 q 617 701 664 669 q 710 638 752 584 z"},"q":{"x_min":0,"x_max":660,"ha":660,"o":"m 480 531 l 611 531 l 516 -194 l 387 -194 l 420 57 q 377 18 341 2 q 304 -14 258 -14 q 152 -14 90 64 q 28 142 28 245 q 28 323 67 394 q 107 465 174 505 q 240 545 313 545 q 362 545 403 522 q 444 500 471 457 z m 288 103 q 336 103 372 124 q 407 146 431 191 q 456 237 456 285 q 456 348 419 386 q 383 425 323 425 q 254 425 206 374 q 157 322 157 241 q 157 179 194 141 q 230 103 288 103 z"},"d":{"x_min":0,"x_max":660,"ha":660,"o":"m 507 736 l 638 736 l 542 0 l 413 0 l 420 57 q 377 18 341 2 q 304 -14 258 -14 q 152 -14 90 64 q 28 142 28 245 q 28 323 67 394 q 107 465 174 505 q 240 545 313 545 q 362 545 403 522 q 444 500 471 457 z m 288 103 q 336 103 372 124 q 407 146 431 191 q 456 237 456 285 q 456 348 419 386 q 383 425 323 425 q 254 425 206 374 q 157 322 157 241 q 157 179 194 141 q 230 103 288 103 z"},"1":{"x_min":0,"x_max":560,"ha":560,"o":"m 201 718 l 414 718 l 317 0 l 185 0 l 265 593 l 159 593 z"},"5":{"x_min":0,"x_max":560,"ha":560,"o":"m 198 718 l 542 718 l 525 596 l 293 596 l 252 456 q 283 471 318 471 q 399 471 448 418 q 498 364 498 267 q 498 139 426 61 q 354 -18 246 -18 q 170 -18 111 20 q 52 58 16 134 l 134 188 q 165 141 192 124 q 220 106 252 106 q 300 106 331 144 q 362 181 362 243 q 362 290 338 318 q 314 346 281 346 q 235 346 207 303 l 87 336 z"}}}
